<svg version="1.2" xmlns="http://www.w3.org/2000/svg" viewBox="0 0 500 500" width="500" height="500">
	<title>5429351932666964672</title>
	<style>
		.s0 { opacity: 1;fill: #0673a7 } 
		.s1 { opacity: 1;fill: #ec9496 } 
		.s2 { opacity: 1;fill: #564f4b } 
		.s3 { opacity: 1;fill: #d68f8e } 
		.s4 { opacity: .9;fill: #2e77a4 } 
		.s5 { opacity: .5;fill: #3c7ca5 } 
		.s6 { opacity: .7;fill: #ebbab4 } 
		.s7 { opacity: .3;fill: #e3d4d1 } 
		.s8 { opacity: .3;fill: #9bc0c8 } 
		.s9 { opacity: .7;fill: #8aaab1 } 
	</style>
	<g id="Background">
		<path id="Path 0" class="s0" d="m402.6 295.8c-3.8 7.5-9.2 17.4-12.2 21.9-3 4.6-8.4 11.3-12.2 15-3.9 3.9-9.7 8.4-13.7 10.6-3.9 2.1-9.9 4.9-13.5 6.2-3.6 1.3-10.3 2.8-15 3.4-4.7 0.6-12.3 0.9-17 0.7-4.7-0.3-11.9-1.2-16-2-4.3-0.9-12.2-3.8-18.5-6.8-6.1-2.9-11.2-5.5-11.5-5.8-0.3-0.3-2-1.7-3.9-3l-3.5-2.5c3.2 6.2 6.4 10.1 9 12.7 2.7 2.7 8.5 7.5 12.9 10.8 4.4 3.3 10.2 7.1 13 8.4 2.7 1.3 8.1 3.2 12 4.2 5.4 1.5 10.5 1.9 22 1.9 12.9-0.1 16-0.4 22-2.4 3.8-1.2 9.5-3.6 12.5-5.2 3-1.6 8.2-5.1 11.5-7.7 3.3-2.7 8.2-7.7 10.9-11.3 2.6-3.5 6.1-9 7.7-12.2 1.6-3.1 3-6.5 3.2-7.5 0.1-0.9 0.5-2.1 0.9-2.7 0.4-0.6 0.8-2.1 1.1-3.5 0.2-1.4 0.7-2.9 1-3.5 0.3-0.6 1.2-5.5 2.1-11 0.8-5.5 1.6-12.8 1.8-16.3 0.2-3.4 0.3-6.2 0.3-6.2-0.1 0-3.2 6.2-6.9 13.7zm22.4 38.1c-5.8 6-15 14.9-20.5 19.8-5.5 4.9-12.7 10.9-16 13.4-3.3 2.4-11 7-17 10.1-6.1 3.1-13.3 6.4-16 7.3-2.8 0.9-8.8 2.2-13.5 2.9-5.4 0.8-12 1-18 0.6-5.2-0.4-12.2-1.4-15.5-2.4-3.3-0.9-6.7-1.8-7.5-2-0.8-0.1-3-1-4.8-1.9-1.7-0.9-3.4-2-3.7-2.6-0.3-0.6-1-0.8-1.5-0.5-0.6 0.3-1.7-0.2-2.5-1-0.8-0.8-3.2-2.2-5.3-3.1-2-0.9-3.9-2-4.2-2.4-0.3-0.4-7.9-5.6-16.9-11.6-9-6-20.7-13.5-26-16.7-5.3-3.1-14.3-7.7-20.1-10.2-5.8-2.4-14.1-5.4-18.5-6.6-6.1-1.7-11-2.2-21-2.3-8.4-0.1-15 0.4-18.5 1.3-3 0.8-9.1 2.9-13.5 4.6-4.4 1.7-10.7 4.9-14 7-3.3 2.2-9.6 7.5-14.1 12-4.4 4.4-10 10.9-12.4 14.5-2.5 3.6-6.6 11.3-9.2 17.2-2.6 6-4.8 11-4.8 11.3 0 0.3 2.4-1.8 5.2-4.6 2.9-2.8 8.4-7.7 12.3-10.8 3.8-3.2 9-7.1 11.5-8.8 2.5-1.7 7.2-4.4 10.5-6.1 3.3-1.6 9.4-4 13.5-5.3 5.8-1.8 9.8-2.3 17.5-2.3 8.2 0 11.4 0.5 18 2.8 4.4 1.5 11.4 4.4 15.5 6.5 4.1 2.1 9.9 5.5 12.9 7.7 3 2.1 11.1 8.1 18 13.3 6.9 5.2 17.3 12.7 23.1 16.5 5.8 3.9 14.5 9.2 19.5 11.8 4.9 2.5 12.4 5.8 16.5 7.2 4.1 1.4 10.9 3.2 15 4.1 4.9 1 11.7 1.5 19.5 1.4 6.6-0.1 13.6-0.5 15.5-1 1.9-0.4 4.6-1 6-1.2 1.4-0.3 3.8-0.9 5.5-1.3 1.6-0.4 4.1-1.4 5.5-2.1 1.4-0.7 2.8-1.3 3.2-1.3 0.5 0 4.3-1.6 8.5-3.7 4.3-2 12.7-7.3 18.8-11.8 6-4.5 13.6-11.1 16.8-14.6 3.3-3.5 8.3-9.8 11.2-13.9 2.9-4.1 7.7-12.2 10.8-18 3.1-5.8 7.8-15.8 10.5-22.3 2.7-6.4 4.8-11.7 4.8-11.7-0.1 0-4.9 4.9-10.6 10.8zm-278.5 40.5c-2.8 0.8-6.9 2.3-9.3 3.5-2.3 1.2-6.1 4.1-8.3 6.4-2.3 2.4-4.8 5.9-5.7 7.8-0.8 1.9-1.6 4.7-1.8 6.2-0.2 1.6 0.1 3.6 0.7 4.5 1 1.7 1 1.7 0.5 0-0.3-0.9-0.2-1.7 0.4-1.7 0.5 0 1-0.8 1-1.8 0-0.9 1.7-3.3 3.7-5.3 2.1-2 5.4-4.5 7.3-5.4 2.8-1.4 5.2-1.7 12.5-1.3 6.1 0.4 11.4 1.4 16.5 3.2 4.1 1.4 9.9 4.1 12.8 5.9 3 1.7 8.6 5.6 12.5 8.6 4 3 11.9 9.4 17.7 14.2 5.8 4.7 14.5 11.2 19.5 14.4 4.9 3.2 11.7 6.9 15 8.3 3.3 1.4 8.5 3.1 11.5 3.8 3 0.7 9.5 1.3 14.5 1.3 4.9 0 9.9-0.4 11-0.8 1.5-0.6 0.6-1-4-2-3.3-0.6-9.4-3-13.5-5.3-4.1-2.2-10.4-6.4-14-9.3-3.6-2.8-14.2-12.5-23.5-21.4-9.4-9-20.6-18.7-25-21.6-4.4-3-9.8-6.1-12-7.1-2.2-0.9-6.9-2.5-10.5-3.5-3.6-1-10.6-2.1-15.5-2.4-5.8-0.3-10.8 0-14 0.8z"/>
		<path id="Path 1" class="s1" d="m333 57.2c-4.1 2.4-11.9 7.5-17.3 11.3-8 5.7-9.9 7.6-10.7 10.5-0.6 1.9-1 7.1-1 11.5 0 5.5-0.3 7.7-1 7-0.6-0.6-1.7-4.2-2.6-8-0.8-3.8-1.7-7.1-2-7.3-0.2-0.1-1.6 0.9-3.1 2.2-1.6 1.3-7.7 6.6-13.8 11.7-6 5.2-17.6 15.9-25.8 23.9-8.1 8-14.8 15.2-14.7 16 0 0.8 3.5 8.6 7.7 17.3 4.3 8.7 7.5 16 7.1 16.3-0.5 0.2-3.9-2.6-7.6-6.4-3.8-3.7-9.1-9.4-12-12.7l-5.1-6c-11.6 12.4-18.1 19.8-22 24.5-4.1 5-7.1 9.4-7.1 10.7 0 1.3 1.9 6.7 4.2 12 2.4 5.4 6.2 13.4 8.5 17.8 2.4 4.4 4.3 8.1 4.3 8.2 0 0.2-0.4 0.3-1 0.3-0.6 0-3.5-2.4-6.6-5.3-3.1-2.8-8.5-8.9-12-13.5-3.5-4.5-6.8-8-7.4-7.7-0.6 0.3-3.4 4.2-6.3 8.7-3 4.6-7 11.2-9 14.8-2 3.6-5.1 10.3-6.8 15-2.7 7.2-3.2 9.9-3.3 17.5 0 7.3 0.4 9.8 2 13 1.2 2.2 4.3 5.9 7 8.2 2.7 2.3 5.1 3.8 5.4 3.4 0.3-0.5 6.4-6.9 13.5-14.3 7.2-7.3 18.4-19.3 25-26.7 6.6-7.4 16-18.2 20.8-24 4.9-5.8 14.1-17.6 20.6-26.1 6.5-8.5 15.6-21.1 20.2-28 4.7-6.9 11.3-17.2 14.9-23 3.5-5.8 9-15.5 12.3-21.5 3.2-6 7.7-13.4 10-16.3 2.3-3 5.2-6 6.4-6.8 1.3-0.8 2.6-1.1 3-0.8 0.5 0.3-1.2 4.5-3.7 9.2-2.5 4.8-8.3 15-12.9 22.7-4.6 7.7-12 19.4-16.4 26-4.4 6.6-13.2 19-19.5 27.5-6.3 8.5-14 18.7-17.1 22.5-3.1 3.8-10.1 12.3-15.6 18.8-5.5 6.6-10.7 12.9-11.5 14-0.8 1.2-2.4 3.1-3.6 4.2-1.2 1.1-5.9 6.3-10.4 11.5-4.6 5.2-11.1 12.4-14.4 16.1-3.4 3.6-7.6 8.2-9.4 10.2-1.7 2-3 3.7-2.7 3.7 0.3 0 5.8-2.5 12.2-5.6 6.5-3 15.9-7.8 20.8-10.6 4.9-2.9 13.5-8.2 19-11.8 5.5-3.7 14.7-10.5 20.5-15.1 5.8-4.6 14.4-12.2 19.3-16.9 4.8-4.7 8.5-8.6 8.2-8.8-0.3-0.1-5.9 2.5-12.5 5.8-6.6 3.3-12.5 5.9-13 5.7-0.6-0.1 7.2-5.2 17.2-11.2 17.6-10.6 18.6-11.4 25.1-19.5 3.8-4.7 8.6-11.1 10.8-14.3 2.1-3.1 3.9-5.9 3.9-6.2 0-0.3-1.7 0.4-3.8 1.4-2 1-9.1 5.3-15.7 9.5-6.6 4.2-12.7 7.6-13.5 7.6-0.8 0 1.4-2 5-4.5 3.6-2.5 12.1-8.3 19-12.9 6.9-4.6 13.3-9.2 14.2-10.2 0.9-1.1 3.9-6.6 6.7-12.4 2.7-5.8 6.1-13.7 7.6-17.5 1.5-3.8 3.7-10.4 5-14.5 1.2-4.1 3-11.1 3.8-15.5 0.9-4.4 1.9-11.2 2.2-15 0.4-3.8 0.2-9.9-0.4-13.5-0.6-3.6-1.9-7.6-2.9-9-1.3-1.7-3.1-2.6-5.3-2.8-2.5-0.2-5.4 0.9-10.9 4z"/>
		<path id="Path 2" class="s2" d="m321.4 89.6c-4 4-7.5 9-10.8 15.4-2.7 5.2-8.6 15.6-13.1 23-4.5 7.4-11 17.8-14.5 23-3.5 5.2-11.4 16.3-17.5 24.5-6.2 8.3-15.4 20.2-20.6 26.5-5.2 6.3-14.3 17.1-20.3 24-5.9 6.9-19.9 21.9-31 33.4-11 11.5-27.7 27.9-37.1 36.5-9.3 8.5-24.2 21.7-33 29.2-8.8 7.5-17.4 15.6-19.1 18-1.7 2.4-4.3 6.8-5.8 9.7-1.4 2.8-2.5 5.7-2.3 6.3 0.1 0.7 3.8-1.9 8.2-5.6 4.4-3.7 16.8-15 27.5-25 10.7-10.1 24.5-23.4 30.5-29.7 6.1-6.3 17.3-18.1 25.1-26.4 7.8-8.2 18.6-19.9 24-25.9 5.4-6.1 14-15.7 18.9-21.5 5-5.8 14.1-16.6 20.1-24 6.1-7.4 16.3-20.5 22.6-29 6.3-8.5 14.9-20.4 19.1-26.5 4.1-6.1 11.1-16.8 15.4-24 4.4-7.2 10.7-18.3 14.1-24.7 3.4-6.5 6.1-12.1 5.9-12.5-0.2-0.4-3 2-6.3 5.3z"/>
		<path id="Path 3" class="s3" d="m189 263.8l-8.5 8.7c13.6-13.2 17.5-17.1 17.5-17.3 0-0.1-0.1-0.2-0.3-0.2-0.1 0-4.1 3.9-8.7 8.7z"/>
		<path id="Path 4" class="s4" d="m145.3 329.1c-2.9 1-5.2 2.1-5.1 2.4 0.2 0.3 2.8-0.4 5.8-1.6 3-1.1 5.7-2.3 5.9-2.5 0.2-0.2 0-0.4-0.5-0.3-0.5 0-3.3 0.9-6.2 2zm131.3 19.8c1.6 1.8 5.2 4.9 8 7 2.7 2.1 6.2 4.6 7.7 5.5 1.6 0.9 2.8 1.5 2.8 1.3 0.1-0.1-1.7-1.4-4-3-2.2-1.5-7-5.2-10.8-8.4-3.7-3.1-5.3-4.2-3.7-2.4zm-30.5 0.6c0 0.3 3.9 3.1 8.7 6.3 4.9 3.2 9.5 6.2 10.3 6.7q1.5 0.8 0.5-0.2c-0.6-0.6-5.1-3.8-10.2-7.2-5.1-3.4-9.2-5.9-9.3-5.6zm-85 23.6c4.7 0.5 9.8 1.4 11.5 1.9 1.6 0.6 3.4 1 4 0.9 0.5 0-0.8-0.7-3-1.5-2.2-0.8-7.8-1.6-12.5-1.9l-8.5-0.4zm-25 4.4c-2.5 1.3-6.3 4.3-8.4 6.7-2.2 2.4-4.6 5.9-5.3 7.8-0.8 2-1.2 3.8-0.9 4 0.2 0.3 0.9-1 1.5-3 0.6-1.9 2.8-5.3 4.9-7.6 2-2.3 6.2-5.6 9.2-7.3 3-1.6 5-3 4.5-3-0.6 0-3 1.1-5.5 2.4zm-41.6 1.8c-0.9 1.8-2.8 6.2-4.1 9.7-1.3 3.6-2.2 6.6-2.1 6.8 0.2 0.1 4.1-3.7 8.8-8.5 5.1-5.2 6.3-6.7 3-3.8-3 2.7-6.5 6.1-7.7 7.5-1.2 1.4-2.2 2.2-2.3 1.8 0-0.4 1.5-4.4 3.4-8.8 1.8-4.4 3.2-8 3-8-0.2 0-1.1 1.5-2 3.3zm266.5 2.2c-0.2 0.2-4.2 1.5-8.9 2.9-4.7 1.4-7.7 2.6-6.8 2.6 1 0 5.4-1.1 9.8-2.5 4.4-1.3 8-2.7 8-3 0-0.2-0.4-0.5-0.8-0.5-0.5 0-1.1 0.2-1.3 0.5zm-224.5 6.3c-0.7 0.4 2 0.6 6 0.4 3.9-0.1 8-0.4 9.1-0.6 1.1-0.1-1.6-0.3-6-0.4-4.4-0.1-8.5 0.2-9.1 0.6zm246 15c-3.3 2.6-7.1 5.6-8.5 6.6-2.4 1.8-2.4 1.8 0.6 0.1 1.6-1 5.6-3.7 8.7-6.1 3.2-2.4 5.8-4.6 5.8-4.9 0-0.2-0.1-0.4-0.3-0.4-0.1 0-2.9 2.1-6.3 4.7zm-156.4 7.5c5.8 5.9 10.6 10.8 10.7 10.8 0.2-0.1 0.3-0.2 0.3-0.3 0-0.1-4.8-5-10.7-10.8l-10.8-10.5zm87 16.5c3 0.2 7.5 0.2 10 0 2.5-0.2 0-0.3-5.5-0.3-5.5 0-7.5 0.1-4.5 0.3zm-49 21c1.9 0.2 5.3 0.2 7.5 0 2.2-0.2 0.6-0.4-3.5-0.4-4.1 0-5.9 0.2-4 0.4z"/>
		<path id="Path 5" class="s5" d="m273.2 346.6c-0.2 0.5 1.9 3 4.5 5.5 2.6 2.5 6.7 5.7 9.1 7.2 2.3 1.5 4.4 2.6 4.7 2.4 0.3-0.1-1.2-1.4-3.2-2.8-2.1-1.4-6.3-5-9.4-7.8-3-2.9-5.6-4.9-5.7-4.5zm-26.3 2.7c0 0.1 4.2 3 9.3 6.4 5.1 3.5 9.8 6.3 10.3 6.3 0.6 0-1.3-1.7-4.2-3.7-2.8-2.1-6.6-4.7-8.5-5.8-1.8-1-4.1-2.3-5.1-2.7-1-0.4-1.8-0.6-1.8-0.5zm-61.4 12c1.1 0.8 5.4 3.2 9.5 5.5 4.1 2.3 7.9 4.1 8.5 4.1 0.6 0 0.1-0.7-1-1.5-1.1-0.9-5.5-3.3-9.7-5.5-4.3-2.1-8.1-3.9-8.5-3.9-0.5 0 0.1 0.6 1.2 1.3zm133.5 10.8c1.4 0.7 7.4 1.4 13.5 1.6 6.1 0.3 12.1 0 13.5-0.5 1.8-0.7-0.9-1-10-0.9-6.9 0-14.1-0.3-16-0.6-3.2-0.6-3.3-0.6-1 0.4zm-185.5 5.5c-1.6 0.8-4.3 2.7-5.8 4.2-1.6 1.5-3.7 4.4-4.8 6.4-1 2.1-1.9 4.1-1.9 4.5 0 0.5 1.2-1.2 2.8-3.7 1.6-2.5 4.4-5.9 6.4-7.5 1.9-1.7 4.3-3.5 5.4-4.2 1-0.6 1.7-1.2 1.4-1.2-0.3-0.1-1.8 0.6-3.5 1.5zm-41.8 4.5c-1.5 3-2.7 6.1-2.6 6.9 0 0.8 1.4-1.4 3-5 1.6-3.6 2.8-6.7 2.6-6.9-0.2-0.2-1.5 2-3 5zm7.9 3c-3.9 3.9-5.8 6.2-4.1 5.1 1.7-1.1 5.2-4.3 8-7.1 2.7-2.8 4.5-5.1 4.1-5.1-0.5 0-4 3.2-8 7.1zm256.4-3.1c-0.8 0.5-4.1 1.5-7.4 2.2-3.2 0.7-5.9 1.7-6 2.1-0.1 0.4 1 0.5 2.4 0.1 1.4-0.4 5.7-1.7 9.5-2.9 3.9-1.3 6.1-2.3 5-2.4-1.1 0-2.7 0.4-3.5 0.9zm-220.9 7c-1.4 0.5-2.4 1.2-2.3 1.5 0.1 0.3 1 0.2 2-0.2 0.9-0.3 4-0.9 6.7-1.3l5-0.7c-7-0.1-10.1 0.2-11.4 0.7zm249.1 13.4c-3.4 2.8-5.9 5.2-5.7 5.3 0.3 0.2 2.4-1 4.8-2.6 2.3-1.6 5.1-3.8 6.2-5 1.1-1.2 1.7-2.3 1.4-2.4-0.3-0.2-3.3 1.9-6.7 4.7z"/>
		<path id="Path 6" class="s6" d="m252 122.8l-11.5 11.7c18.2-17.8 23.5-23.1 23.5-23.2 0-0.2-0.1-0.3-0.3-0.3-0.1 0-5.4 5.3-11.7 11.8zm59.9 41.3c-2 1.6-2.1 1.8-0.4 1.2 1.8-0.6 1.9-0.5 0.5 1.1-1 1.2 0.1 0.9 3.6-1.1 2.9-1.5 5-2.9 4.8-3-0.2-0.2-1.4 0.2-2.6 0.8-1.6 0.7-2.5 0.8-2.9 0.1-0.4-0.7-1.5-0.3-3 0.9zm-9.1 6.2c-2.3 1.8-6.8 5-9.8 7-3 2-4.8 3.7-4 3.7 0.8-0.1 4.1-1.6 7.3-3.5 3.1-1.9 5.5-3.9 5.2-4.5-0.3-0.6 0.3-0.9 1.3-0.8 0.9 0.1 2.9-0.6 4.5-1.5 1.5-0.9 2.7-1.9 2.7-2.2 0-0.3-0.8-0.2-1.7 0.2-1.3 0.5-1.6 0.4-1.1-0.5 0.4-0.6 0.6-1.2 0.4-1.2-0.3 0-2.4 1.5-4.8 3.3zm-22.1 33c-9.2 5.6-16.3 10.3-15.7 10.5 0.5 0.1 6.3-2.5 12.8-5.8 6.4-3.3 12.3-6 13-6 0.6 0 1.2-0.4 1.2-1 0-0.6-0.9-0.7-2.2-0.3-1.7 0.5-2.1 0.4-1.4-0.5 0.4-0.7 2.6-2.1 4.7-3.2 2.2-1.1 4.1-2.4 4.4-3 0.2-0.6 0.3-1 0.2-0.9-0.1 0-7.8 4.6-17 10.2z"/>
		<path id="Path 7" class="s7" d="m303 83.3l-0.1 5.2c-2.2-5-3.5-6.8-4.2-7.1-0.6-0.4-2.3 0.6-3.7 2.2l-2.5 2.8c4.3-3.4 5.8-4.2 6.3-4 0.4 0.2 1.4 3.3 2.2 7 0.8 3.6 1.8 6.6 2.3 6.6 0.4 0 0.7-4 0.7-9 0-5-0.2-9-0.5-9-0.3 0-0.5 2.4-0.5 5.3zm-56 43.2c-4.1 4.1-7.3 7.6-7 7.7 0.3 0.2 3.8-3.2 7.9-7.4 4.1-4.3 7.2-7.8 7-7.8-0.2 0-3.8 3.4-7.9 7.5zm80.7 27.3c-0.2 0.4-3.1 2.5-6.3 4.7-3.3 2.1-6.5 4.5-7.2 5.2-0.7 0.7-1.6 1.3-2 1.3-0.4 0-3.2 1.8-6.2 4-3 2.2-5.2 4-4.8 4 0.5 0 3.6-1.8 7-4.1 3.5-2.3 7.5-4.7 9-5.5 1.6-0.8 3.7-1.4 4.8-1.4 1.2 0 2-0.7 2-1.8 0-0.9 1.2-2.9 2.7-4.5 1.5-1.5 2.4-2.7 2-2.7-0.3 0-0.8 0.3-1 0.7zm-80.2 8.1c3.8 4 7.3 7.2 7.8 7.2 0.4 0 0.5-0.6 0.4-1.3-0.2-0.6-0.8-1.1-1.3-1-0.5 0.1-3.8-2.6-7.4-6l-6.5-6.2zm53 29.9c-2.2 1.9-5.6 4.4-7.5 5.4-2 1.1-4 2.5-4.5 3.1-0.8 1-0.4 1.1 1.3 0.6 1.2-0.4 2.2-0.4 2.2 0 0 0.4-1 1.8-2.3 3-1.2 1.3-2 2.3-1.7 2.3 0.3 0 4.2-4.1 8.8-9 4.6-5 8.2-9 8-9-0.2 0-2.1 1.6-4.3 3.6z"/>
		<path id="Path 8" class="s8" d="m153.5 308.3l-14 14.2c22.1-21.7 28.5-28.1 28.5-28.3 0-0.1-0.1-0.2-0.3-0.2-0.1 0-6.5 6.4-14.2 14.2zm15 15.5c3.3 0.2 8.3 0.2 11 0 2.7-0.2 0.1-0.3-6-0.3-6.1 0-8.3 0.1-5 0.3zm152 29c2.7 0.2 6.8 0.2 9 0 2.2-0.2-0.1-0.3-5-0.3-4.9 0-6.8 0.1-4 0.3z"/>
		<path id="Path 9" class="s9" d="m418 339.8l-10.5 10.7c16.7-16.3 21.5-21.1 21.5-21.3 0-0.1-0.1-0.2-0.3-0.2-0.1 0-5 4.8-10.7 10.7z"/>
	</g>
</svg>